<svg xmlns="http://www.w3.org/2000/svg" viewBox="0 0 242 44"><defs><style>.cls-1{fill:#fff;}.cls-2{fill:none;}</style></defs><g id="图层_2" data-name="图层 2"><g id="图层_1-2" data-name="图层 1"><path class="cls-1" d="M70.16,22.93A8.82,8.82,0,1,1,79,31.74,8.76,8.76,0,0,1,70.16,22.93Zm14.77,0A6,6,0,1,0,79,29,6,6,0,0,0,84.93,22.93Z"/><path class="cls-1" d="M90.33,26.62V19.44H93v6.75c0,1.92.87,3.1,2.4,3.1,1.73,0,2.93-1.35,2.93-3.94V19.44H101v12H98.3V29.82a3.83,3.83,0,0,1-3.5,1.87C92,31.69,90.33,29.7,90.33,26.62Z"/><path class="cls-1" d="M104.5,19.44h2.64v2.14a3.38,3.38,0,0,1,3.17-2.26,4.8,4.8,0,0,1,1,.1v2.71a3.48,3.48,0,0,0-1.32-.21c-1.51,0-2.88,1.27-2.88,3.67v5.86H104.5Z"/><path class="cls-1" d="M121.57,14.4l6,8.07,6-8.07h2.56v17h-2.83V19.23L127.55,27l-5.74-7.76V31.45H119v-17Z"/><path class="cls-1" d="M138.86,25.45A6,6,0,0,1,145,19.2c3.67,0,6.27,2.81,6,6.89h-9.56a3.43,3.43,0,0,0,3.63,3.27,3.14,3.14,0,0,0,3-1.68h2.76a5.89,5.89,0,0,1-5.89,4A6,6,0,0,1,138.86,25.45Zm2.69-1.23h6.65A3.24,3.24,0,0,0,145,21.41,3.31,3.31,0,0,0,141.55,24.22Z"/><path class="cls-1" d="M154.63,27.58V21.8h-2.49V19.44h2.49V16.11h2.65v3.33h3.43V21.8h-3.43v5.35c0,1.51.64,2,2,2a3.71,3.71,0,0,0,1.42-.24v2.36a6.67,6.67,0,0,1-2,.26C156.43,31.57,154.63,30.3,154.63,27.58Z"/><path class="cls-1" d="M162.17,25.45A6,6,0,0,1,168,19.2a4.78,4.78,0,0,1,3.84,1.85V19.44h2.64v12H171.8V29.84A4.78,4.78,0,0,1,168,31.69,6,6,0,0,1,162.17,25.45Zm9.85,0a3.59,3.59,0,1,0-7.16,0,3.59,3.59,0,1,0,7.16,0Z"/><path class="cls-1" d="M176.34,19.44h2.93l3.65,8.43,3.67-8.43h3l-5.45,12h-2.33Z"/><path class="cls-1" d="M190.24,25.45a6,6,0,0,1,6.17-6.25c3.68,0,6.27,2.81,6,6.89h-9.56a3.42,3.42,0,0,0,3.62,3.27,3.13,3.13,0,0,0,3-1.68h2.76a5.88,5.88,0,0,1-5.88,4A6,6,0,0,1,190.24,25.45Zm2.69-1.23h6.65a3.23,3.23,0,0,0-3.24-2.81A3.31,3.31,0,0,0,192.93,24.22Z"/><path class="cls-1" d="M205.13,19.44h2.64v2.14a3.38,3.38,0,0,1,3.17-2.26,4.8,4.8,0,0,1,1,.1v2.71a3.48,3.48,0,0,0-1.32-.21c-1.51,0-2.88,1.27-2.88,3.67v5.86h-2.64Z"/><path class="cls-1" d="M213.12,27.8h2.74a2.21,2.21,0,0,0,2.48,1.78c1.15,0,1.94-.44,1.94-1.28s-.53-1.27-1.78-1.58l-2-.53c-2.09-.55-3.07-1.87-3.07-3.63,0-2,1.78-3.36,4.47-3.36s4.39,1.44,4.58,3.61h-2.64a1.87,1.87,0,0,0-2-1.49c-1,0-1.75.45-1.75,1.22s.58,1.18,1.61,1.44l2,.53c2.18.55,3.19,1.8,3.19,3.63,0,2.33-2,3.55-4.71,3.55S213.24,30.23,213.12,27.8Z"/><path class="cls-1" d="M224.79,25.45A6,6,0,0,1,231,19.2c3.68,0,6.27,2.81,6,6.89h-9.56A3.42,3.42,0,0,0,231,29.36a3.12,3.12,0,0,0,3-1.68h2.76a5.88,5.88,0,0,1-5.88,4A6,6,0,0,1,224.79,25.45Zm2.69-1.23h6.65a3.22,3.22,0,0,0-3.24-2.81A3.31,3.31,0,0,0,227.48,24.22Z"/><path class="cls-1" d="M36.2,6.51a15.82,15.82,0,0,1,4.88,1.61,16.57,16.57,0,0,1,4.31,3.32c.73.66,1.06.85,1.6.73s2.43-1,3.38-1.28a61.89,61.89,0,0,1,9-2.42c1.65-.29,3.62-.37,4.31,0s.21,1.6-.44,2.54a21.07,21.07,0,0,1-4,4c-2.07,1.66-4.71,3.44-5.39,3.87a16.2,16.2,0,0,1-2.11,1.23c-.17.07-.52.12-.66-.14s.09-.51.23-.61c.79-.54,2.24-1.75,3.09-2.39a26.11,26.11,0,0,0,3.48-3.13c.51-.62.79-1.2.4-1.55s-1.21-.16-2.8.18a53.88,53.88,0,0,0-7.77,2.71C35.66,19.86,33,21.55,29,22.91a22.52,22.52,0,0,1-4.8,1.34,11.37,11.37,0,0,1-3.91,0,3.63,3.63,0,0,1-3.19-4,15.67,15.67,0,0,1,4.67-9,17.4,17.4,0,0,1,7-4.25A16.19,16.19,0,0,1,36.2,6.51Z"/><path class="cls-1" d="M30.85,39.34A15.74,15.74,0,0,1,26,37.73a16.62,16.62,0,0,1-4.32-3.32c-.72-.66-1.06-.84-1.6-.73s-2.43,1-3.38,1.28a61.89,61.89,0,0,1-9,2.42,9.78,9.78,0,0,1-4.31,0c-.77-.38-.21-1.6.45-2.54a20.72,20.72,0,0,1,4-4c2.08-1.66,4.71-3.44,5.39-3.87a16.9,16.9,0,0,1,2.11-1.23c.17-.07.53-.12.66.14a.5.5,0,0,1-.23.61c-.79.54-2.24,1.75-3.08,2.39A26.33,26.33,0,0,0,9.16,32c-.5.62-.79,1.2-.4,1.55s1.21.16,2.81-.18a54.27,54.27,0,0,0,7.76-2.71C31.38,26,34.07,24.3,38,22.94a22.56,22.56,0,0,1,4.81-1.34,11.31,11.31,0,0,1,3.9,0,3.65,3.65,0,0,1,3.2,4,15.75,15.75,0,0,1-4.68,9,17.4,17.4,0,0,1-7,4.25A16.16,16.16,0,0,1,30.85,39.34Z"/><rect class="cls-2" width="242" height="44"/></g></g></svg>